<svg xmlns="http://www.w3.org/2000/svg" viewBox="0 0 48 48" fill="none">
  <circle cx="24" cy="24" r="22" fill="#181717"/>
  <path fill-rule="evenodd" clip-rule="evenodd" d="M24 10c-7.7 0-14 6.3-14 14 0 6.2 4 11.4 9.5 13.3.7.1 1-.3 1-.7v-2.3c-3.9.8-4.7-1.9-4.7-1.9-.6-1.6-1.6-2.1-1.6-2.1-1.3-.9.1-.9.1-.9 1.4.1 2.2 1.5 2.2 1.5 1.3 2.2 3.3 1.6 4.1 1.2.1-.9.5-1.6.9-1.9-3.1-.4-6.4-1.6-6.4-7 0-1.5.5-2.8 1.4-3.8-.1-.4-.6-1.8.1-3.8 0 0 1.2-.4 3.8 1.4 1.1-.3 2.3-.5 3.5-.5s2.4.2 3.5.5c2.7-1.8 3.8-1.4 3.8-1.4.8 2 .3 3.4.1 3.8.9 1 1.4 2.3 1.4 3.8 0 5.4-3.3 6.6-6.4 7 .5.4 1 1.3 1 2.6v3.9c0 .4.3.8 1 .7C34 35.4 38 30.2 38 24c0-7.7-6.3-14-14-14z" fill="white"/>
</svg>